Coordinates
version=1
nRows=21
nColumns=34
inDegrees=no

Units are S.I. units (second, meters, Newtons, ...)
If the header above contains a line with 'inDegrees', this indicates whether rotational values are in degrees (yes) or radians (no).

endheader
time	pelvis_tilt	pelvis_list	pelvis_rotation	pelvis_tx	pelvis_ty	pelvis_tz	hip_flexion_r	hip_adduction_r	hip_rotation_r	knee_angle_r	ankle_angle_r	subtalar_angle_r	mtp_angle_r	hip_flexion_l	hip_adduction_l	hip_rotation_l	knee_angle_l	ankle_angle_l	subtalar_angle_l	mtp_angle_l	lumbar_extension	lumbar_bending	lumbar_rotation	arm_flex_r	arm_add_r	arm_rot_r	elbow_flex_r	pro_sup_r	arm_flex_l	arm_add_l	arm_rot_l	elbow_flex_l	pro_sup_l
0.4	0.0535674	-0.141833	0.0974933	0.283162	1.04937	-0.271137	-0.0290446	0.190921	-0.148402	0.194153	0.166252	-0.0904373	-0.0434568	0.476161	-0.301568	-0.200761	0.845265	0.0555628	0.122661	-0.0399799	-0.370651	0.104937	0.0343109	0.0601301	-0.205104	-0.0633316	0.862359	1.87675	-0.163335	-0.249432	0.0217553	0.754043	1.91698
0.41	0.0534681	-0.140519	0.09445	0.292979	1.04864	-0.270303	-0.0424608	0.191815	-0.142034	0.189993	0.175221	-0.0889296	-0.043482	0.474585	-0.29757	-0.220844	0.786557	0.0557066	0.129098	-0.0399881	-0.371155	0.094594	0.0382334	0.0606406	-0.206356	-0.0557569	0.869017	1.87817	-0.162961	-0.247759	0.00562374	0.758215	1.91159
0.42	0.0530468	-0.139553	0.0911656	0.302863	1.04774	-0.269501	-0.0555649	0.192882	-0.135687	0.186043	0.18429	-0.0871375	-0.0435071	0.471568	-0.293519	-0.242323	0.724812	0.0546501	0.139219	-0.0399963	-0.371184	0.0843894	0.0423723	0.0605988	-0.207522	-0.0492126	0.87564	1.87956	-0.162146	-0.245803	-0.0106912	0.762644	1.90652
0.43	0.0523335	-0.138774	0.087688	0.312819	1.04668	-0.268745	-0.0684113	0.193898	-0.129704	0.182282	0.193621	-0.0846305	-0.0435323	0.467085	-0.288974	-0.264407	0.660056	0.0526791	0.153954	-0.0400045	-0.370778	0.0741927	0.0465596	0.060087	-0.208565	-0.0435888	0.882091	1.88075	-0.160909	-0.243588	-0.0271765	0.767253	1.90183
0.44	0.0513796	-0.137999	0.0840615	0.322854	1.04549	-0.268049	-0.0810494	0.194622	-0.124448	0.178713	0.203392	-0.0809753	-0.0435575	0.461089	-0.283483	-0.285985	0.592352	0.0501169	0.173782	-0.0400128	-0.369989	0.0638496	0.0506147	0.0592027	-0.209441	-0.0387566	0.888229	1.88163	-0.15927	-0.241166	-0.0437794	0.77194	1.89754
0.45	0.050259	-0.137049	0.0803174	0.332979	1.04417	-0.267423	-0.0935234	0.194827	-0.120249	0.175355	0.213771	-0.0757928	-0.0435827	0.453536	-0.276652	-0.305681	0.521905	0.0472954	0.198561	-0.040021	-0.368869	0.0532013	0.0543677	0.0580454	-0.210098	-0.0345822	0.893918	1.88213	-0.157256	-0.238617	-0.0604118	0.77658	1.89365
0.46	0.0490505	-0.135784	0.0764723	0.34321	1.04275	-0.266874	-0.105884	0.194341	-0.117361	0.172232	0.224885	-0.0688083	-0.0436079	0.444423	-0.268231	-0.321983	0.44919	0.0445288	0.22745	-0.0400292	-0.367478	0.0421028	0.057678	0.0567063	-0.21048	-0.0309387	0.899039	1.88226	-0.154898	-0.236047	-0.0769578	0.781034	1.89017
0.47	0.0478179	-0.134115	0.0725336	0.353557	1.04124	-0.266403	-0.118188	0.193073	-0.115916	0.16937	0.236784	-0.0599126	-0.0436331	0.433853	-0.258187	-0.333449	0.375091	0.0420987	0.258957	-0.0400374	-0.365881	0.0304522	0.0604457	0.055258	-0.210529	-0.0277135	0.903505	1.88208	-0.152237	-0.233583	-0.0932827	0.785154	1.8871
0.48	0.0466122	-0.132018	0.0685064	0.36403	1.03965	-0.266009	-0.130493	0.191043	-0.115899	0.166783	0.249414	-0.0492055	-0.0436583	0.422096	-0.246752	-0.338967	0.301014	0.040259	0.291145	-0.0400456	-0.36414	0.0182114	0.0626118	0.0537494	-0.21019	-0.0248127	0.907261	1.88173	-0.149324	-0.231371	-0.109242	0.788797	1.88444
0.49	0.0454663	-0.129547	0.0644049	0.374633	1.03798	-0.265681	-0.142836	0.18838	-0.117145	0.164478	0.262606	-0.0370115	-0.0436835	0.409646	-0.234432	-0.338026	0.22892	0.0392579	0.321968	-0.0400538	-0.362301	0.00541474	0.0641492	0.0522036	-0.209411	-0.0221623	0.910293	1.8814	-0.146215	-0.229563	-0.124689	0.791823	1.88221
0.5	0.0443878	-0.126825	0.0602627	0.38536	1.03626	-0.265405	-0.15522	0.185302	-0.119366	0.162461	0.276083	-0.0238585	-0.0437087	0.397231	-0.221952	-0.330927	0.161252	0.0393602	0.349675	-0.040062	-0.360389	-0.0078371	0.065049	0.0506199	-0.208153	-0.019706	0.912627	1.88131	-0.142962	-0.228314	-0.139474	0.79411	1.8804
0.51	0.0433534	-0.124011	0.0561386	0.396197	1.03448	-0.265163	-0.167596	0.182077	-0.122196	0.16075	0.289497	-0.010412	-0.0437339	0.385761	-0.210147	-0.318857	0.100713	0.0408416	0.373141	-0.0400702	-0.358403	-0.0214003	0.0653049	0.0489774	-0.206392	-0.0173978	0.914323	1.88159	-0.139613	-0.227767	-0.153452	0.795557	1.87898
0.52	0.0423115	-0.12126	0.0521143	0.407129	1.03265	-0.264937	-0.17987	0.178955	-0.12527	0.159386	0.30248	0.00264077	-0.0437591	0.376203	-0.199805	-0.303732	0.0499049	0.0439349	0.392019	-0.0400785	-0.356328	-0.0351261	0.0649022	0.0472392	-0.20412	-0.0151891	0.915473	1.88226	-0.136197	-0.228045	-0.166477	0.79609	1.87778
0.53	0.0411925	-0.118682	0.0482808	0.418137	1.03079	-0.264706	-0.191918	0.176111	-0.128279	0.158441	0.3147	0.0147006	-0.0437844	0.369398	-0.191518	-0.287833	0.0109169	0.0487285	0.406619	-0.0400867	-0.354142	-0.0489013	0.0638159	0.0453542	-0.201352	-0.0130327	0.916188	1.88318	-0.132733	-0.229241	-0.178426	0.795657	1.87666
0.54	0.0399285	-0.116343	0.0447134	0.42921	1.0289	-0.264458	-0.203627	0.173612	-0.130988	0.157996	0.32588	0.0253086	-0.0438096	0.365901	-0.185592	-0.273378	-0.0150163	0.0550732	0.417697	-0.0400949	-0.351834	-0.0626819	0.0620226	0.0432565	-0.198126	-0.0108826	0.91659	1.88419	-0.129228	-0.231406	-0.189209	0.794229	1.87546
0.55	0.0385001	-0.114247	0.0414551	0.440346	1.02701	-0.264187	-0.214918	0.171411	-0.133241	0.158126	0.335814	0.0341938	-0.0438348	0.365876	-0.182044	-0.262143	-0.0276556	0.0625277	0.426176	-0.0401031	-0.349393	-0.0765001	0.059519	0.0408663	-0.194504	-0.00869347	0.916797	1.88508	-0.125689	-0.234551	-0.198783	0.7918	1.87407
0.56	0.0369275	-0.112306	0.0385153	0.451554	1.02513	-0.263897	-0.225784	0.169369	-0.134998	0.158889	0.344385	0.0413291	-0.04386	0.36912	-0.180672	-0.255297	-0.0275839	0.0704032	0.433018	-0.0401113	-0.346843	-0.0904401	0.0563294	0.0380972	-0.190561	-0.00642039	0.916913	1.88571	-0.122127	-0.238645	-0.207163	0.788387	1.87242
0.57	0.0352822	-0.110377	0.0358704	0.462852	1.0233	-0.263605	-0.236285	0.167297	-0.136296	0.160325	0.351529	0.0468668	-0.0438853	0.375201	-0.181165	-0.253339	-0.0159767	0.0778535	0.439061	-0.0401195	-0.344244	-0.10462	0.0525053	0.0348663	-0.186381	-0.00401785	0.917019	1.88599	-0.118552	-0.243628	-0.214417	0.78403	1.8705
0.58	0.0336443	-0.108326	0.0334685	0.474253	1.02154	-0.263322	-0.24652	0.165007	-0.137173	0.162456	0.357178	0.0509931	-0.0439105	0.383547	-0.183187	-0.256087	0.00555463	0.0839582	0.44485	-0.0401277	-0.341672	-0.119161	0.0481342	0.0311042	-0.182051	-0.00143965	0.917166	1.88591	-0.114967	-0.249422	-0.220646	0.778779	1.86835
0.59	0.0320869	-0.106047	0.0312254	0.485774	1.01989	-0.263062	-0.256577	0.162347	-0.137665	0.165291	0.361241	0.0538895	-0.0439358	0.393472	-0.186419	-0.262791	0.0350436	0.0878251	0.450571	-0.0401359	-0.339189	-0.13416	0.0433353	0.0267628	-0.177651	0.00136167	0.917365	1.88555	-0.111374	-0.255932	-0.225986	0.772684	1.86604
0.6	0.0306534	-0.103483	0.0290327	0.497429	1.01837	-0.262833	-0.266494	0.159229	-0.137781	0.168853	0.363584	0.0556748	-0.043961	0.404249	-0.190598	-0.272292	0.0702913	0.088726	0.456044	-0.0401441	-0.336813	-0.149661	0.038253	0.0218217	-0.173254	0.00443784	0.91759	1.88508	-0.107768	-0.263054	-0.230591	0.765788	1.86368
